<?xml version="1.0" encoding="UTF-8" standalone="no"?>
<!DOCTYPE svg PUBLIC "-//W3C//DTD SVG 1.1//EN"
 "http://www.w3.org/Graphics/SVG/1.1/DTD/svg11.dtd">
<!-- Generated by graphviz version 2.38.0 (20140413.2041)
 -->
<!-- Title: dgp Pages: 1 -->
<svg width="447pt" height="276pt"
 viewBox="0.00 0.00 447.25 276.00" xmlns="http://www.w3.org/2000/svg" xmlns:xlink="http://www.w3.org/1999/xlink">
<g id="graph0" class="graph" transform="scale(1 1) rotate(0) translate(4 272)">
<title>dgp</title>
<polygon fill="white" stroke="none" points="-4,4 -4,-272 443.25,-272 443.25,4 -4,4"/>
<!-- noat -->
<g id="node1" class="node"><title>noat</title>
<g id="a_node1"><a xlink:title="ratio of years that the monitor (county) is out of attainment to the number of years for which there is a record during the time span 1992&#45;1997">
<polygon fill="LightSalmon" stroke="Black" points="140.713,-264 -0.238306,-264 -0.238306,-228 140.713,-228 140.713,-264"/>
<text text-anchor="middle" x="70.2375" y="-243" font-family="Helvetica,sans-Serif" font-size="10.00">Non Attainment Designation</text>
</a>
</g>
</g>
<!-- rm -->
<g id="node5" class="node"><title>rm</title>
<path fill="Lavender" stroke="Black" stroke-dasharray="5,2" d="M126.927,-188C126.927,-188 13.5481,-188 13.5481,-188 7.54815,-188 1.54815,-182 1.54815,-176 1.54815,-176 1.54815,-156 1.54815,-156 1.54815,-150 7.54815,-144 13.5481,-144 13.5481,-144 126.927,-144 126.927,-144 132.927,-144 138.927,-150 138.927,-156 138.927,-156 138.927,-176 138.927,-176 138.927,-182 132.927,-188 126.927,-188"/>
<text text-anchor="middle" x="70.2375" y="-175" font-family="Helvetica,sans-Serif" font-size="10.00">Local Regulatory measures</text>
<text text-anchor="middle" x="70.2375" y="-163" font-family="Helvetica,sans-Serif" font-size="10.00"> to reduce PM10</text>
<text text-anchor="middle" x="70.2375" y="-151" font-family="Helvetica,sans-Serif" font-size="10.00"> concentration.</text>
</g>
<!-- noat&#45;&gt;rm -->
<g id="edge4" class="edge"><title>noat&#45;&gt;rm</title>
<path fill="none" stroke="black" stroke-dasharray="5,2" d="M70.2375,-227.689C70.2375,-219.029 70.2375,-208.275 70.2375,-198.237"/>
<polygon fill="black" stroke="black" points="73.7376,-198.153 70.2375,-188.153 66.7376,-198.153 73.7376,-198.153"/>
</g>
<!-- dpm -->
<g id="node2" class="node"><title>dpm</title>
<g id="a_node2"><a xlink:title="The change in PM10 concentration">
<polygon fill="LightSalmon" stroke="Black" points="231.705,-108 140.77,-108 140.77,-72 231.705,-72 231.705,-108"/>
<text text-anchor="middle" x="186.237" y="-87" font-family="Helvetica,sans-Serif" font-size="10.00">Change in PM10</text>
</a>
</g>
</g>
<!-- dhp -->
<g id="node3" class="node"><title>dhp</title>
<g id="a_node3"><a xlink:title="The change in house prices">
<polygon fill="LightSalmon" stroke="Black" points="349.039,-36 225.436,-36 225.436,-0 349.039,-0 349.039,-36"/>
<text text-anchor="middle" x="287.237" y="-15" font-family="Helvetica,sans-Serif" font-size="10.00">Change in House Prices</text>
</a>
</g>
</g>
<!-- dpm&#45;&gt;dhp -->
<g id="edge1" class="edge"><title>dpm&#45;&gt;dhp</title>
<path fill="none" stroke="black" d="M210.945,-71.8761C223.906,-62.8931 239.966,-51.7625 254.003,-42.0341"/>
<polygon fill="black" stroke="black" points="256.21,-44.7628 262.435,-36.1898 252.222,-39.0095 256.21,-44.7628"/>
</g>
<!-- x -->
<g id="node4" class="node"><title>x</title>
<polygon fill="LightSalmon" stroke="Black" points="287.412,-184 195.063,-184 195.063,-148 287.412,-148 287.412,-184"/>
<text text-anchor="middle" x="241.237" y="-163" font-family="Helvetica,sans-Serif" font-size="10.00">Control Variables</text>
</g>
<!-- x&#45;&gt;dpm -->
<g id="edge3" class="edge"><title>x&#45;&gt;dpm</title>
<path fill="none" stroke="black" d="M228.481,-147.837C221.539,-138.497 212.818,-126.763 205.105,-116.386"/>
<polygon fill="black" stroke="black" points="207.699,-114.008 198.925,-108.07 202.081,-118.184 207.699,-114.008"/>
</g>
<!-- x&#45;&gt;dhp -->
<g id="edge2" class="edge"><title>x&#45;&gt;dhp</title>
<path fill="none" stroke="black" d="M246.604,-147.966C254.491,-122.935 269.29,-75.9642 278.685,-46.1456"/>
<polygon fill="black" stroke="black" points="282.095,-46.9675 281.762,-36.3779 275.419,-44.8639 282.095,-46.9675"/>
</g>
<!-- rm&#45;&gt;dpm -->
<g id="edge5" class="edge"><title>rm&#45;&gt;dpm</title>
<path fill="none" stroke="black" stroke-dasharray="5,2" d="M103.168,-143.993C118.062,-134.491 135.687,-123.248 150.862,-113.567"/>
<polygon fill="black" stroke="black" points="152.926,-116.402 159.475,-108.073 149.162,-110.5 152.926,-116.402"/>
</g>
<!-- ei -->
<g id="node6" class="node"><title>ei</title>
<path fill="Lavender" stroke="Black" stroke-dasharray="5,2" d="M267.855,-268C267.855,-268 214.62,-268 214.62,-268 208.62,-268 202.62,-262 202.62,-256 202.62,-256 202.62,-236 202.62,-236 202.62,-230 208.62,-224 214.62,-224 214.62,-224 267.855,-224 267.855,-224 273.855,-224 279.855,-230 279.855,-236 279.855,-236 279.855,-256 279.855,-256 279.855,-262 273.855,-268 267.855,-268"/>
<text text-anchor="middle" x="241.237" y="-255" font-family="Helvetica,sans-Serif" font-size="10.00">Exogenous </text>
<text text-anchor="middle" x="241.237" y="-243" font-family="Helvetica,sans-Serif" font-size="10.00">infrastructure </text>
<text text-anchor="middle" x="241.237" y="-231" font-family="Helvetica,sans-Serif" font-size="10.00">changes</text>
</g>
<!-- ei&#45;&gt;dpm -->
<g id="edge6" class="edge"><title>ei&#45;&gt;dpm</title>
<path fill="none" stroke="black" stroke-dasharray="5,2" d="M213.211,-223.949C202.654,-214.295 191.85,-201.899 186.237,-188 177.258,-165.763 178.269,-138.25 180.934,-118.212"/>
<polygon fill="black" stroke="black" points="184.412,-118.624 182.482,-108.206 177.494,-117.553 184.412,-118.624"/>
</g>
<!-- ei&#45;&gt;dhp -->
<g id="edge7" class="edge"><title>ei&#45;&gt;dhp</title>
<path fill="none" stroke="black" stroke-dasharray="5,2" d="M269.264,-223.949C279.821,-214.295 290.625,-201.899 296.237,-188 315.28,-140.841 304.457,-80.1924 295.449,-45.8559"/>
<polygon fill="black" stroke="black" points="298.787,-44.7933 292.747,-36.0885 292.04,-46.6597 298.787,-44.7933"/>
</g>
<!-- ei&#45;&gt;x -->
<g id="edge8" class="edge"><title>ei&#45;&gt;x</title>
<path fill="none" stroke="black" stroke-dasharray="5,2" d="M241.237,-223.686C241.237,-214.641 241.237,-203.985 241.237,-194.369"/>
<polygon fill="black" stroke="black" points="244.738,-194.093 241.237,-184.093 237.738,-194.093 244.738,-194.093"/>
</g>
<!-- eps -->
<g id="node7" class="node"><title>eps</title>
<path fill="Lavender" stroke="Black" stroke-dasharray="5,2" d="M427.264,-108C427.264,-108 355.211,-108 355.211,-108 349.211,-108 343.211,-102 343.211,-96 343.211,-96 343.211,-84 343.211,-84 343.211,-78 349.211,-72 355.211,-72 355.211,-72 427.264,-72 427.264,-72 433.264,-72 439.264,-78 439.264,-84 439.264,-84 439.264,-96 439.264,-96 439.264,-102 433.264,-108 427.264,-108"/>
<text text-anchor="middle" x="391.237" y="-93" font-family="Helvetica,sans-Serif" font-size="10.00">Other unobserved</text>
<text text-anchor="middle" x="391.237" y="-81" font-family="Helvetica,sans-Serif" font-size="10.00">factors</text>
</g>
<!-- eps&#45;&gt;dhp -->
<g id="edge9" class="edge"><title>eps&#45;&gt;dhp</title>
<path fill="none" stroke="black" stroke-dasharray="5,2" d="M365.796,-71.8761C352.45,-62.8931 335.913,-51.7625 321.46,-42.0341"/>
<polygon fill="black" stroke="black" points="323.027,-38.87 312.777,-36.1898 319.118,-44.6771 323.027,-38.87"/>
</g>
</g>
</svg>

