<?xml version="1.0" encoding="UTF-8" standalone="no"?>
<!DOCTYPE svg PUBLIC "-//W3C//DTD SVG 1.1//EN"
 "http://www.w3.org/Graphics/SVG/1.1/DTD/svg11.dtd">
<!-- Generated by graphviz version 2.38.0 (20140413.2041)
 -->
<!-- Title: dgp Pages: 1 -->
<svg width="457pt" height="276pt"
 viewBox="0.00 0.00 457.25 276.00" xmlns="http://www.w3.org/2000/svg" xmlns:xlink="http://www.w3.org/1999/xlink">
<g id="graph0" class="graph" transform="scale(1 1) rotate(0) translate(4 272)">
<title>dgp</title>
<polygon fill="white" stroke="none" points="-4,4 -4,-272 453.25,-272 453.25,4 -4,4"/>
<!-- noat -->
<g id="node1" class="node"><title>noat</title>
<g id="a_node1"><a xlink:title="ratio of years that the monitor (county) is out of attainment to the number of years for which there is a record during the time span 1992&#45;1997">
<polygon fill="LightSalmon" stroke="Black" points="140.713,-264 -0.238306,-264 -0.238306,-228 140.713,-228 140.713,-264"/>
<text text-anchor="middle" x="70.2375" y="-243" font-family="Helvetica,sans-Serif" font-size="10.00">Non Attainment Designation</text>
</a>
</g>
</g>
<!-- dpm -->
<g id="node2" class="node"><title>dpm</title>
<path fill="LightSalmon" stroke="Black" d="M208.658,-108C208.658,-108 107.817,-108 107.817,-108 101.817,-108 95.8175,-102 95.8175,-96 95.8175,-96 95.8175,-84 95.8175,-84 95.8175,-78 101.817,-72 107.817,-72 107.817,-72 208.658,-72 208.658,-72 214.658,-72 220.658,-78 220.658,-84 220.658,-84 220.658,-96 220.658,-96 220.658,-102 214.658,-108 208.658,-108"/>
<text text-anchor="middle" x="158.237" y="-93" font-family="Helvetica,sans-Serif" font-size="10.00">Predicted Change PM10</text>
<text text-anchor="middle" x="158.237" y="-81" font-family="Helvetica,sans-Serif" font-size="10.00">(1st Stage LS)</text>
</g>
<!-- noat&#45;&gt;dpm -->
<g id="edge4" class="edge"><title>noat&#45;&gt;dpm</title>
<path fill="none" stroke="blue" d="M56.8916,-227.675C42.3386,-206.503 23.2446,-170.261 40.2375,-144 50.9387,-127.462 68.1589,-116.036 86.1748,-108.159"/>
<polygon fill="blue" stroke="blue" points="87.665,-111.332 95.6382,-104.355 85.0543,-104.837 87.665,-111.332"/>
</g>
<!-- rm -->
<g id="node5" class="node"><title>rm</title>
<path fill="Lavender" stroke="Black" stroke-dasharray="5,2" d="M174.927,-188C174.927,-188 61.5481,-188 61.5481,-188 55.5481,-188 49.5481,-182 49.5481,-176 49.5481,-176 49.5481,-156 49.5481,-156 49.5481,-150 55.5481,-144 61.5481,-144 61.5481,-144 174.927,-144 174.927,-144 180.927,-144 186.927,-150 186.927,-156 186.927,-156 186.927,-176 186.927,-176 186.927,-182 180.927,-188 174.927,-188"/>
<text text-anchor="middle" x="118.237" y="-175" font-family="Helvetica,sans-Serif" font-size="10.00">Local Regulatory measures</text>
<text text-anchor="middle" x="118.237" y="-163" font-family="Helvetica,sans-Serif" font-size="10.00"> to reduce PM10</text>
<text text-anchor="middle" x="118.237" y="-151" font-family="Helvetica,sans-Serif" font-size="10.00"> concentration.</text>
</g>
<!-- noat&#45;&gt;rm -->
<g id="edge5" class="edge"><title>noat&#45;&gt;rm</title>
<path fill="none" stroke="black" stroke-dasharray="5,2" d="M80.8903,-227.689C86.4444,-218.664 93.3968,-207.366 99.7924,-196.973"/>
<polygon fill="black" stroke="black" points="102.96,-198.504 105.22,-188.153 96.9985,-194.835 102.96,-198.504"/>
</g>
<!-- dhp -->
<g id="node3" class="node"><title>dhp</title>
<g id="a_node3"><a xlink:title="The change in house prices">
<polygon fill="LightSalmon" stroke="Black" points="353.982,-36 240.493,-36 240.493,-0 353.982,-0 353.982,-36"/>
<text text-anchor="middle" x="297.237" y="-15" font-family="Helvetica,sans-Serif" font-size="10.00">Change House Prices</text>
</a>
</g>
</g>
<!-- dpm&#45;&gt;dhp -->
<g id="edge1" class="edge"><title>dpm&#45;&gt;dhp</title>
<path fill="none" stroke="black" d="M192.241,-71.8761C210.836,-62.5117 234.065,-50.8136 253.943,-40.803"/>
<polygon fill="black" stroke="black" points="255.746,-43.8136 263.104,-36.1898 252.598,-37.5616 255.746,-43.8136"/>
</g>
<!-- x -->
<g id="node4" class="node"><title>x</title>
<polygon fill="LightSalmon" stroke="Black" points="297.412,-184 205.063,-184 205.063,-148 297.412,-148 297.412,-184"/>
<text text-anchor="middle" x="251.237" y="-163" font-family="Helvetica,sans-Serif" font-size="10.00">Control Variables</text>
</g>
<!-- x&#45;&gt;dpm -->
<g id="edge3" class="edge"><title>x&#45;&gt;dpm</title>
<path fill="none" stroke="black" d="M229.668,-147.837C217.226,-137.937 201.403,-125.346 187.813,-114.533"/>
<polygon fill="black" stroke="black" points="189.695,-111.558 179.69,-108.07 185.336,-117.035 189.695,-111.558"/>
</g>
<!-- x&#45;&gt;dhp -->
<g id="edge2" class="edge"><title>x&#45;&gt;dhp</title>
<path fill="none" stroke="black" d="M256.604,-147.966C264.491,-122.935 279.29,-75.9642 288.685,-46.1456"/>
<polygon fill="black" stroke="black" points="292.095,-46.9675 291.762,-36.3779 285.419,-44.8639 292.095,-46.9675"/>
</g>
<!-- rm&#45;&gt;dpm -->
<g id="edge6" class="edge"><title>rm&#45;&gt;dpm</title>
<path fill="none" stroke="black" stroke-dasharray="5,2" d="M129.593,-143.993C134.071,-135.708 139.265,-126.1 143.99,-117.357"/>
<polygon fill="black" stroke="black" points="147.202,-118.776 148.878,-108.315 141.044,-115.447 147.202,-118.776"/>
</g>
<!-- ei -->
<g id="node6" class="node"><title>ei</title>
<path fill="Lavender" stroke="Black" stroke-dasharray="5,2" d="M314.855,-268C314.855,-268 261.62,-268 261.62,-268 255.62,-268 249.62,-262 249.62,-256 249.62,-256 249.62,-236 249.62,-236 249.62,-230 255.62,-224 261.62,-224 261.62,-224 314.855,-224 314.855,-224 320.855,-224 326.855,-230 326.855,-236 326.855,-236 326.855,-256 326.855,-256 326.855,-262 320.855,-268 314.855,-268"/>
<text text-anchor="middle" x="288.237" y="-255" font-family="Helvetica,sans-Serif" font-size="10.00">Exogenous </text>
<text text-anchor="middle" x="288.237" y="-243" font-family="Helvetica,sans-Serif" font-size="10.00">infrastructure </text>
<text text-anchor="middle" x="288.237" y="-231" font-family="Helvetica,sans-Serif" font-size="10.00">changes</text>
</g>
<!-- ei&#45;&gt;dhp -->
<g id="edge7" class="edge"><title>ei&#45;&gt;dhp</title>
<path fill="none" stroke="black" stroke-dasharray="5,2" d="M296.569,-223.985C300.334,-213.38 304.356,-200.205 306.237,-188 313.871,-138.476 307.34,-79.934 302.129,-46.3679"/>
<polygon fill="black" stroke="black" points="305.566,-45.6974 300.503,-36.3905 298.657,-46.8233 305.566,-45.6974"/>
</g>
<!-- ei&#45;&gt;x -->
<g id="edge8" class="edge"><title>ei&#45;&gt;x</title>
<path fill="none" stroke="black" stroke-dasharray="5,2" d="M278.127,-223.686C273.652,-214.252 268.346,-203.066 263.634,-193.134"/>
<polygon fill="black" stroke="black" points="266.794,-191.628 259.346,-184.093 260.47,-194.628 266.794,-191.628"/>
</g>
<!-- eps -->
<g id="node7" class="node"><title>eps</title>
<path fill="Lavender" stroke="Black" stroke-dasharray="5,2" d="M437.264,-108C437.264,-108 365.211,-108 365.211,-108 359.211,-108 353.211,-102 353.211,-96 353.211,-96 353.211,-84 353.211,-84 353.211,-78 359.211,-72 365.211,-72 365.211,-72 437.264,-72 437.264,-72 443.264,-72 449.264,-78 449.264,-84 449.264,-84 449.264,-96 449.264,-96 449.264,-102 443.264,-108 437.264,-108"/>
<text text-anchor="middle" x="401.237" y="-93" font-family="Helvetica,sans-Serif" font-size="10.00">Other unobserved</text>
<text text-anchor="middle" x="401.237" y="-81" font-family="Helvetica,sans-Serif" font-size="10.00">factors</text>
</g>
<!-- eps&#45;&gt;dhp -->
<g id="edge9" class="edge"><title>eps&#45;&gt;dhp</title>
<path fill="none" stroke="black" stroke-dasharray="5,2" d="M375.796,-71.8761C362.45,-62.8931 345.913,-51.7625 331.46,-42.0341"/>
<polygon fill="black" stroke="black" points="333.027,-38.87 322.777,-36.1898 329.118,-44.6771 333.027,-38.87"/>
</g>
</g>
</svg>

